<?xml version="1.0" standalone="no"?>
<!DOCTYPE svg PUBLIC "-//W3C//DTD SVG 20010904//EN"
 "http://www.w3.org/TR/2001/REC-SVG-20010904/DTD/svg10.dtd">
<svg version="1.0" xmlns="http://www.w3.org/2000/svg"
 width="489.000000pt" height="489.000000pt" viewBox="0 0 489.000000 489.000000"
 preserveAspectRatio="xMidYMid meet">

<g transform="translate(0.000000,489.000000) scale(0.100000,-0.100000)"
fill="#000000" stroke="none">
<path d="M1675 4220 c-482 -76 -943 -554 -1268 -1316 -244 -570 -378 -1174
-381 -1709 -2 -345 35 -543 137 -739 118 -228 357 -362 757 -423 160 -24 532
-24 725 1 886 112 1682 466 2195 976 135 133 226 256 295 395 64 130 93 234
101 365 14 209 -65 456 -222 698 -30 45 -54 85 -54 88 0 10 -184 236 -279 342
-47 53 -207 219 -356 367 -595 596 -933 841 -1285 931 -108 28 -270 38 -365
24z m325 -75 c250 -59 515 -218 855 -516 161 -141 534 -507 707 -693 524 -564
693 -957 582 -1345 -105 -365 -510 -765 -1069 -1057 -873 -455 -2008 -596
-2570 -319 -236 116 -345 291 -402 640 -23 140 -22 501 1 695 61 518 210 1031
435 1495 223 461 470 773 759 960 228 147 466 194 702 140z"/>
</g>
</svg>
