<svg xmlns="http://www.w3.org/2000/svg" xmlns:xlink="http://www.w3.org/1999/xlink" viewBox="0 0 97.37 105.17"><defs><style>.cls-1{fill:url(#linear-gradient);}.cls-2{fill:url(#linear-gradient-2);}.cls-3{fill:url(#linear-gradient-3);}.cls-4{fill:url(#linear-gradient-4);}.cls-5{fill:url(#linear-gradient-5);}.cls-6{fill:url(#linear-gradient-6);}.cls-7{fill:url(#linear-gradient-7);}.cls-8{fill:url(#linear-gradient-8);}.cls-9{fill:url(#linear-gradient-9);}.cls-10{fill:url(#linear-gradient-10);}.cls-11{fill:url(#linear-gradient-11);}.cls-12{fill:url(#linear-gradient-12);}.cls-13{fill:url(#linear-gradient-13);}.cls-14{fill:url(#linear-gradient-14);}.cls-15{fill:url(#linear-gradient-15);}.cls-16{fill:url(#linear-gradient-16);}.cls-17{fill:url(#linear-gradient-17);}.cls-18{fill:url(#linear-gradient-18);}.cls-19{fill:url(#linear-gradient-19);}.cls-20{fill:url(#linear-gradient-20);}.cls-21{fill:url(#linear-gradient-21);}.cls-22{fill:url(#linear-gradient-22);}.cls-23{fill:url(#linear-gradient-23);}.cls-24{fill:url(#linear-gradient-24);}.cls-25{fill:url(#linear-gradient-25);}.cls-26{fill:url(#linear-gradient-26);}.cls-27{fill:url(#linear-gradient-27);}.cls-28{fill:url(#linear-gradient-28);}.cls-29{fill:url(#linear-gradient-29);}.cls-30{fill:url(#linear-gradient-30);}.cls-31{fill:url(#linear-gradient-31);}.cls-32{fill:url(#linear-gradient-32);}.cls-33{fill:url(#linear-gradient-33);}.cls-34{fill:url(#linear-gradient-34);}.cls-35{fill:url(#linear-gradient-35);}.cls-36{fill:url(#linear-gradient-36);}.cls-37{fill:url(#linear-gradient-37);}.cls-38{fill:url(#linear-gradient-38);}.cls-39{fill:url(#linear-gradient-39);}.cls-40{fill:url(#linear-gradient-40);}.cls-41{fill:url(#linear-gradient-41);}.cls-42{fill:url(#linear-gradient-42);}.cls-43{fill:url(#linear-gradient-43);}.cls-44{fill:url(#linear-gradient-44);}.cls-45{fill:url(#linear-gradient-45);}.cls-46{fill:url(#linear-gradient-46);}.cls-47{fill:url(#linear-gradient-47);}.cls-48{fill:url(#linear-gradient-48);}.cls-49{fill:url(#linear-gradient-49);}.cls-50{fill:url(#linear-gradient-50);}.cls-51{fill:url(#linear-gradient-51);}.cls-52{fill:url(#linear-gradient-52);}.cls-53{fill:url(#linear-gradient-53);}.cls-54{fill:url(#linear-gradient-54);}.cls-55{fill:url(#linear-gradient-55);}.cls-56{fill:url(#linear-gradient-56);}.cls-57{fill:url(#linear-gradient-57);}.cls-58{fill:url(#linear-gradient-58);}.cls-59{fill:url(#linear-gradient-59);}.cls-60{fill:url(#linear-gradient-60);}.cls-61{fill:url(#linear-gradient-61);}.cls-62{fill:url(#linear-gradient-62);}.cls-63{fill:url(#linear-gradient-63);}.cls-64{fill:url(#linear-gradient-64);}.cls-65{fill:url(#linear-gradient-65);}.cls-66{fill:url(#linear-gradient-66);}.cls-67{fill:url(#linear-gradient-67);}.cls-68{fill:url(#linear-gradient-68);}.cls-69{fill:url(#linear-gradient-69);}.cls-70{fill:url(#linear-gradient-70);}.cls-71{fill:url(#linear-gradient-71);}.cls-72{fill:url(#linear-gradient-72);}.cls-73{fill:url(#linear-gradient-73);}.cls-74{fill:url(#linear-gradient-74);}.cls-75{fill:url(#linear-gradient-75);}.cls-76{fill:url(#linear-gradient-76);}.cls-77{fill:url(#linear-gradient-77);}.cls-78{fill:url(#linear-gradient-78);}.cls-79{fill:url(#linear-gradient-79);}.cls-80{fill:url(#linear-gradient-80);}.cls-81{fill:url(#linear-gradient-81);}</style><linearGradient id="linear-gradient" x1="-2689.77" y1="-632.46" x2="-2703.57" y2="-620.7" gradientTransform="translate(398.68 229.78) rotate(9.82) scale(0.13)" gradientUnits="userSpaceOnUse"><stop offset="0" stop-color="#f9e4bf"/><stop offset="0.13" stop-color="#f6e0ba"/><stop offset="0.28" stop-color="#efd3ab"/><stop offset="0.45" stop-color="#e2bf92"/><stop offset="0.63" stop-color="#d0a36f"/><stop offset="0.82" stop-color="#b97f43"/><stop offset="1" stop-color="#9f5510"/></linearGradient><linearGradient id="linear-gradient-2" x1="-2674.97" y1="-615.73" x2="-2685.15" y2="-608.72" gradientTransform="translate(398.8 229.76) rotate(9.82) scale(0.13)" xlink:href="#linear-gradient"/><linearGradient id="linear-gradient-3" x1="-2668.47" y1="-617.94" x2="-2676.39" y2="-608.66" gradientTransform="translate(398.83 229.77) rotate(9.82) scale(0.13)" xlink:href="#linear-gradient"/><linearGradient id="linear-gradient-4" x1="-2698.13" y1="-613.01" x2="-2706.5" y2="-609.62" gradientTransform="translate(398.79 229.81) rotate(9.82) scale(0.13)" xlink:href="#linear-gradient"/><linearGradient id="linear-gradient-5" x1="1105.6" y1="-2260.4" x2="1097.22" y2="-2257" gradientTransform="matrix(-0.1, 0.08, 0.08, 0.1, 358.05, 238.26)" xlink:href="#linear-gradient"/><linearGradient id="linear-gradient-6" x1="-2707.4" y1="-617.01" x2="-2724.37" y2="-609.99" gradientTransform="translate(398.87 229.83) rotate(9.82) scale(0.13)" xlink:href="#linear-gradient"/><linearGradient id="linear-gradient-7" x1="-2715.9" y1="-627.61" x2="-2723.83" y2="-625.8" gradientTransform="translate(398.81 229.71) rotate(9.82) scale(0.13)" xlink:href="#linear-gradient"/><linearGradient id="linear-gradient-8" x1="-2673.27" y1="-638.42" x2="-2682.53" y2="-633.79" gradientTransform="translate(398.81 229.95) rotate(9.82) scale(0.13)" xlink:href="#linear-gradient"/><linearGradient id="linear-gradient-9" x1="-2690.07" y1="-631.38" x2="-2699.31" y2="-626.76" gradientTransform="translate(397.87 230.17) rotate(9.82) scale(0.13)" xlink:href="#linear-gradient"/><linearGradient id="linear-gradient-10" x1="-2692.54" y1="-639.53" x2="-2701.78" y2="-634.91" gradientTransform="translate(397.81 229.72) rotate(9.82) scale(0.13)" xlink:href="#linear-gradient"/><linearGradient id="linear-gradient-11" x1="-2775.29" y1="-176.97" x2="-2784.53" y2="-172.35" gradientTransform="translate(397.66 231.55) rotate(19.41) scale(0.13)" xlink:href="#linear-gradient"/><linearGradient id="linear-gradient-12" x1="-2670.7" y1="-648.32" x2="-2677.95" y2="-643.81" gradientTransform="translate(398.74 229.83) rotate(9.82) scale(0.13)" xlink:href="#linear-gradient"/><linearGradient id="linear-gradient-13" x1="-2676.98" y1="-648.01" x2="-2684.23" y2="-643.51" gradientTransform="translate(398.4 229.79) rotate(9.82) scale(0.13)" xlink:href="#linear-gradient"/><linearGradient id="linear-gradient-14" x1="-2706.55" y1="-633.87" x2="-2721.61" y2="-642.67" gradientTransform="translate(399.05 229.86) rotate(9.82) scale(0.13)" xlink:href="#linear-gradient"/><linearGradient id="linear-gradient-15" x1="-1976.53" y1="-2041.11" x2="-2194.15" y2="-2386.07" gradientTransform="translate(386.78 221.59) rotate(-19.26) scale(0.12)" gradientUnits="userSpaceOnUse"><stop offset="0" stop-color="#f2faef"/><stop offset="0.08" stop-color="#f0f9e7"/><stop offset="0.2" stop-color="#eaf6d0"/><stop offset="0.36" stop-color="#e2f2ab"/><stop offset="0.53" stop-color="#d5eb79"/><stop offset="0.64" stop-color="#cde757"/><stop offset="1" stop-color="#2f8256"/></linearGradient><linearGradient id="linear-gradient-16" x1="-2022.19" y1="-2139.6" x2="-2317.19" y2="-2586.13" xlink:href="#linear-gradient-15"/><linearGradient id="linear-gradient-17" x1="-1953.34" y1="-1928.45" x2="-2319.52" y2="-2567.32" xlink:href="#linear-gradient-15"/><linearGradient id="linear-gradient-18" x1="-2073.28" y1="-1985.6" x2="-1982.99" y2="-2425.76" xlink:href="#linear-gradient-15"/><linearGradient id="linear-gradient-19" x1="-2043.8" y1="-2012.79" x2="-2307.84" y2="-2473.46" xlink:href="#linear-gradient-15"/><linearGradient id="linear-gradient-20" x1="-2031.86" y1="-2019.64" x2="-2295.88" y2="-2480.26" xlink:href="#linear-gradient-15"/><linearGradient id="linear-gradient-21" x1="-1901.4" y1="-2160.16" x2="-2102.86" y2="-2516.34" xlink:href="#linear-gradient-15"/><linearGradient id="linear-gradient-22" x1="-1594.31" y1="-2091.27" x2="-1608.1" y2="-2079.52" gradientTransform="translate(395.54 217.01) rotate(-29.82) scale(0.13)" xlink:href="#linear-gradient"/><linearGradient id="linear-gradient-23" x1="-1576.42" y1="-2073.92" x2="-1586.59" y2="-2066.91" gradientTransform="translate(395.62 216.92) rotate(-29.82) scale(0.13)" xlink:href="#linear-gradient"/><linearGradient id="linear-gradient-24" x1="-1577.99" y1="-2076.52" x2="-1585.9" y2="-2067.25" gradientTransform="translate(395.64 216.91) rotate(-29.82) scale(0.13)" xlink:href="#linear-gradient"/><linearGradient id="linear-gradient-25" x1="-1593.65" y1="-2067.72" x2="-1602.01" y2="-2064.33" gradientTransform="translate(395.65 216.96) rotate(-29.82) scale(0.13)" xlink:href="#linear-gradient"/><linearGradient id="linear-gradient-26" x1="-694.1" y1="-2456.96" x2="-702.48" y2="-2453.56" gradientTransform="matrix(-0.03, 0.13, 0.13, 0.03, 368.17, 249.43)" xlink:href="#linear-gradient"/><linearGradient id="linear-gradient-27" x1="-1603.11" y1="-2071.83" x2="-1620.06" y2="-2064.82" gradientTransform="translate(395.71 216.92) rotate(-29.82) scale(0.13)" xlink:href="#linear-gradient"/><linearGradient id="linear-gradient-28" x1="-1608.33" y1="-2078.31" x2="-1616.25" y2="-2076.5" gradientTransform="translate(395.6 216.87) rotate(-29.82) scale(0.13)" xlink:href="#linear-gradient"/><linearGradient id="linear-gradient-29" x1="-1570.73" y1="-2094.61" x2="-1579.97" y2="-2089.99" gradientTransform="translate(395.75 217.06) rotate(-29.82) scale(0.13)" xlink:href="#linear-gradient"/><linearGradient id="linear-gradient-30" x1="-1587.55" y1="-2087.58" x2="-1596.79" y2="-2082.97" gradientTransform="translate(395.16 217.83) rotate(-29.82) scale(0.13)" xlink:href="#linear-gradient"/><linearGradient id="linear-gradient-31" x1="-1589.95" y1="-2095.73" x2="-1599.2" y2="-2091.11" gradientTransform="translate(394.83 217.52) rotate(-29.82) scale(0.13)" xlink:href="#linear-gradient"/><linearGradient id="linear-gradient-32" x1="-1925.48" y1="-1799.73" x2="-1934.75" y2="-1795.1" gradientTransform="translate(395.49 220.29) rotate(-20.19) scale(0.13)" xlink:href="#linear-gradient"/><linearGradient id="linear-gradient-33" x1="-1570.69" y1="-2105.92" x2="-1577.94" y2="-2101.42" gradientTransform="translate(395.62 217.01) rotate(-29.82) scale(0.13)" xlink:href="#linear-gradient"/><linearGradient id="linear-gradient-34" x1="-1576.97" y1="-2105.63" x2="-1584.21" y2="-2101.14" gradientTransform="translate(395.33 217.19) rotate(-29.82) scale(0.13)" xlink:href="#linear-gradient"/><linearGradient id="linear-gradient-35" x1="-1604.41" y1="-2063.72" x2="-1619.47" y2="-2072.52" gradientTransform="translate(395.87 216.84) rotate(-29.82) scale(0.13)" xlink:href="#linear-gradient"/><linearGradient id="linear-gradient-36" x1="-1554.59" y1="-2280.18" x2="-1715.23" y2="-2560.44" gradientTransform="translate(395.4 216.85) rotate(-29.82) scale(0.13)" xlink:href="#linear-gradient-15"/><linearGradient id="linear-gradient-37" x1="-536.97" y1="-2886.4" x2="-607.09" y2="-3071.09" gradientTransform="translate(389.94 207.97) rotate(-53.17) scale(0.13)" xlink:href="#linear-gradient-15"/><linearGradient id="linear-gradient-38" x1="-671.14" y1="-2674.42" x2="-802.82" y2="-3101.94" gradientTransform="translate(389.94 207.97) rotate(-53.17) scale(0.13)" xlink:href="#linear-gradient-15"/><linearGradient id="linear-gradient-39" x1="-699.84" y1="-2790.09" x2="-838.36" y2="-3239.84" gradientTransform="translate(389.94 207.97) rotate(-53.17) scale(0.13)" xlink:href="#linear-gradient-15"/><linearGradient id="linear-gradient-40" x1="-1604.54" y1="-2189.11" x2="-1618.36" y2="-2177.33" gradientTransform="translate(393.32 215.26) rotate(-29.77) scale(0.12)" xlink:href="#linear-gradient"/><linearGradient id="linear-gradient-41" x1="-1591.78" y1="-2171.19" x2="-1601.97" y2="-2164.16" gradientTransform="translate(393.4 215.17) rotate(-29.77) scale(0.12)" xlink:href="#linear-gradient"/><linearGradient id="linear-gradient-42" x1="-2623.39" y1="-939.58" x2="-2631.31" y2="-930.3" gradientTransform="translate(401.33 224.57) rotate(4.81) scale(0.12)" xlink:href="#linear-gradient"/><linearGradient id="linear-gradient-43" x1="-1619.75" y1="-2167.4" x2="-1628.13" y2="-2164" gradientTransform="translate(393.43 215.22) rotate(-29.77) scale(0.12)" xlink:href="#linear-gradient"/><linearGradient id="linear-gradient-44" x1="-800.64" y1="-2540.55" x2="-809.01" y2="-2537.16" gradientTransform="matrix(-0.03, 0.12, 0.12, 0.03, 370.69, 246.21)" xlink:href="#linear-gradient"/><linearGradient id="linear-gradient-45" x1="-1628.9" y1="-2171.38" x2="-1645.89" y2="-2164.36" gradientTransform="translate(393.49 215.18) rotate(-29.77) scale(0.12)" xlink:href="#linear-gradient"/><linearGradient id="linear-gradient-46" x1="-1641.15" y1="-2182.59" x2="-1649.08" y2="-2180.78" gradientTransform="translate(393.38 215.13) rotate(-29.77) scale(0.12)" xlink:href="#linear-gradient"/><linearGradient id="linear-gradient-47" x1="-1593.11" y1="-2192.93" x2="-1602.36" y2="-2188.3" gradientTransform="translate(393.53 215.31) rotate(-29.77) scale(0.12)" xlink:href="#linear-gradient"/><linearGradient id="linear-gradient-48" x1="-1609.92" y1="-2185.89" x2="-1619.19" y2="-2181.26" gradientTransform="translate(392.96 216.05) rotate(-29.77) scale(0.12)" xlink:href="#linear-gradient"/><linearGradient id="linear-gradient-49" x1="-1612.38" y1="-2194.05" x2="-1621.65" y2="-2189.42" gradientTransform="translate(392.64 215.75) rotate(-29.77) scale(0.12)" xlink:href="#linear-gradient"/><linearGradient id="linear-gradient-50" x1="-1979.97" y1="-1902.7" x2="-1989.22" y2="-1898.07" gradientTransform="matrix(0.12, -0.04, 0.04, 0.12, 395.55, 218.53)" xlink:href="#linear-gradient"/><linearGradient id="linear-gradient-51" x1="-1037.05" y1="-2568.75" x2="-1044.3" y2="-2564.25" gradientTransform="matrix(0.11, -0.03, 0.08, 0.07, 394.36, 223.74)" xlink:href="#linear-gradient"/><linearGradient id="linear-gradient-52" x1="-1594.79" y1="-2203.05" x2="-1602.04" y2="-2198.54" gradientTransform="translate(393.12 215.44) rotate(-29.77) scale(0.12)" xlink:href="#linear-gradient"/><linearGradient id="linear-gradient-53" x1="-1639.2" y1="-2202.64" x2="-1654.27" y2="-2211.44" gradientTransform="translate(393.65 215.09) rotate(-29.77) scale(0.12)" xlink:href="#linear-gradient"/><linearGradient id="linear-gradient-54" x1="-1708.4" y1="-2262.79" x2="-1791.58" y2="-2639.93" gradientTransform="translate(399.61 211.76) rotate(-29.82) scale(0.13)" xlink:href="#linear-gradient-15"/><linearGradient id="linear-gradient-55" x1="-1651.01" y1="-2383.46" x2="-1791.15" y2="-2607.35" gradientTransform="translate(399.61 211.76) rotate(-29.82) scale(0.13)" xlink:href="#linear-gradient-15"/><linearGradient id="linear-gradient-56" x1="-1824.42" y1="-2560.1" x2="-1982.5" y2="-2739.55" gradientTransform="translate(399.61 211.76) rotate(-29.82) scale(0.13)" xlink:href="#linear-gradient-15"/><linearGradient id="linear-gradient-57" x1="-1541.61" y1="-2244.92" x2="-1791.14" y2="-2491.04" gradientTransform="translate(395.4 216.85) rotate(-29.82) scale(0.13)" xlink:href="#linear-gradient-15"/><linearGradient id="linear-gradient-58" x1="-1760.52" y1="-2365.84" x2="-1957.06" y2="-2657.23" gradientTransform="translate(399.61 211.76) rotate(-29.82) scale(0.13)" xlink:href="#linear-gradient-15"/><linearGradient id="linear-gradient-59" x1="85.53" y1="-2666.77" x2="71.7" y2="-2654.98" gradientTransform="matrix(-0.06, 0.11, 0.11, 0.06, 363.31, 246.09)" xlink:href="#linear-gradient"/><linearGradient id="linear-gradient-60" x1="96.95" y1="-2651.11" x2="86.75" y2="-2644.07" gradientTransform="matrix(-0.06, 0.11, 0.11, 0.06, 363.23, 246.17)" xlink:href="#linear-gradient"/><linearGradient id="linear-gradient-61" x1="-1494.22" y1="-2299.76" x2="-1502.14" y2="-2290.49" gradientTransform="matrix(0.01, 0.12, 0.12, -0.01, 370.81, 253.44)" xlink:href="#linear-gradient"/><linearGradient id="linear-gradient-62" x1="67.85" y1="-2652.8" x2="59.46" y2="-2649.4" gradientTransform="matrix(-0.06, 0.11, 0.11, 0.06, 363.27, 246.2)" xlink:href="#linear-gradient"/><linearGradient id="linear-gradient-63" x1="-2299.47" y1="-1642.14" x2="-2307.84" y2="-1638.75" gradientTransform="translate(393.93 222.5) rotate(-13.86) scale(0.12)" xlink:href="#linear-gradient"/><linearGradient id="linear-gradient-64" x1="58.68" y1="-2656.54" x2="41.65" y2="-2649.5" gradientTransform="matrix(-0.06, 0.11, 0.11, 0.06, 363.23, 246.26)" xlink:href="#linear-gradient"/><linearGradient id="linear-gradient-65" x1="47.28" y1="-2671.99" x2="39.37" y2="-2670.19" gradientTransform="matrix(-0.06, 0.11, 0.11, 0.06, 363.18, 246.15)" xlink:href="#linear-gradient"/><linearGradient id="linear-gradient-66" x1="94.59" y1="-2676.31" x2="85.32" y2="-2671.67" gradientTransform="matrix(-0.06, 0.11, 0.11, 0.06, 363.36, 246.3)" xlink:href="#linear-gradient"/><linearGradient id="linear-gradient-67" x1="77.78" y1="-2669.23" x2="68.5" y2="-2664.59" gradientTransform="matrix(-0.06, 0.11, 0.11, 0.06, 364.1, 245.72)" xlink:href="#linear-gradient"/><linearGradient id="linear-gradient-68" x1="75.31" y1="-2677.4" x2="66.03" y2="-2672.76" gradientTransform="matrix(-0.06, 0.11, 0.11, 0.06, 363.8, 245.41)" xlink:href="#linear-gradient"/><linearGradient id="linear-gradient-69" x1="-382.96" y1="-2677.74" x2="-392.2" y2="-2673.12" gradientTransform="matrix(-0.04, 0.12, 0.12, 0.04, 366.21, 250.15)" xlink:href="#linear-gradient"/><linearGradient id="linear-gradient-70" x1="1251.58" y1="-3933.84" x2="1244.33" y2="-3929.35" gradientTransform="matrix(-0.03, 0.11, 0.07, 0.07, 370.32, 246.12)" xlink:href="#linear-gradient"/><linearGradient id="linear-gradient-71" x1="93.48" y1="-2684.18" x2="86.22" y2="-2679.67" gradientTransform="matrix(-0.06, 0.11, 0.11, 0.06, 363.49, 245.9)" xlink:href="#linear-gradient"/><linearGradient id="linear-gradient-72" x1="64.68" y1="-2700.26" x2="49.6" y2="-2709.06" gradientTransform="matrix(-0.06, 0.11, 0.11, 0.06, 363.15, 246.42)" xlink:href="#linear-gradient"/><linearGradient id="linear-gradient-73" x1="-68.88" y1="-2749.76" x2="-152.06" y2="-3126.9" gradientTransform="matrix(-0.06, 0.11, 0.11, 0.06, 357.95, 250.9)" xlink:href="#linear-gradient-15"/><linearGradient id="linear-gradient-74" x1="-23.37" y1="-2870.8" x2="-163.52" y2="-3094.69" gradientTransform="matrix(-0.06, 0.11, 0.11, 0.06, 357.95, 250.9)" xlink:href="#linear-gradient-15"/><linearGradient id="linear-gradient-75" x1="-202.01" y1="-3044.81" x2="-360.08" y2="-3224.24" gradientTransform="matrix(-0.06, 0.11, 0.11, 0.06, 357.95, 250.9)" xlink:href="#linear-gradient-15"/><linearGradient id="linear-gradient-76" x1="-98.14" y1="-2795.14" x2="-245.14" y2="-3020.76" gradientTransform="matrix(-0.06, 0.11, 0.11, 0.06, 357.95, 250.9)" xlink:href="#linear-gradient-15"/><linearGradient id="linear-gradient-77" x1="-134.12" y1="-2852.74" x2="-330.67" y2="-3144.14" gradientTransform="matrix(-0.06, 0.11, 0.11, 0.06, 357.95, 250.9)" xlink:href="#linear-gradient-15"/><linearGradient id="linear-gradient-78" x1="-456.26" y1="-632.33" x2="-550.28" y2="-639.17" gradientTransform="translate(378.17 317.32) rotate(-12.64) scale(0.51)" xlink:href="#linear-gradient-15"/><linearGradient id="linear-gradient-79" x1="-466.43" y1="-586.91" x2="-543.8" y2="-642.05" gradientTransform="translate(378.17 317.32) rotate(-12.64) scale(0.51)" xlink:href="#linear-gradient-15"/><linearGradient id="linear-gradient-80" x1="-438.09" y1="-590.99" x2="-543.67" y2="-627.75" gradientTransform="translate(378.17 317.32) rotate(-12.64) scale(0.51)" xlink:href="#linear-gradient-15"/><linearGradient id="linear-gradient-81" x1="-508.81" y1="-565.17" x2="-472.9" y2="-611.76" gradientTransform="translate(378.17 317.32) rotate(-12.64) scale(0.51)" xlink:href="#linear-gradient-15"/></defs><title>Asset 2</title><g id="Layer_2" data-name="Layer 2"><g id="图层_1" data-name="图层 1"><path class="cls-1" d="M67.81,85.27c.07-.2.16-.26.34-.24a9.75,9.75,0,0,1,3.25,4.86c.93,3.13,4.6,4,4.6,4s-3.77-.63-4.67-3.31S68.74,85.88,68,85.66C68,85.66,67.73,85.45,67.81,85.27Z"/><path class="cls-2" d="M70.64,84.15c.23,0,.26,0,.28.17S70.22,88.54,74,94c2.9,4.17,4.21,5.23,4.21,5.23S69.87,92,70.34,84.43C70.34,84.43,70.44,84.18,70.64,84.15Z"/><path class="cls-3" d="M69.4,85.76a.25.25,0,0,1,.35.11,25.48,25.48,0,0,0,10,11.24s-7.29-3.78-10.56-11A.31.31,0,0,1,69.4,85.76Z"/><path class="cls-4" d="M68.46,86.09a.28.28,0,0,1,.31.18s.63,9.33,4.53,12c0,0-4.49-2.66-5.12-12A.36.36,0,0,1,68.46,86.09Z"/><path class="cls-5" d="M69.36,83.69a.3.3,0,0,0-.2.3s3.69,8.6,1.46,12.8c0,0,2.78-4.42-.91-13A.32.32,0,0,0,69.36,83.69Z"/><path class="cls-6" d="M66.42,85.51a.27.27,0,0,0-.22.27,10.84,10.84,0,0,1,1.38,5.16,9.47,9.47,0,0,0,3.23,7.11A10.4,10.4,0,0,1,68,91.53a12.81,12.81,0,0,0-1.23-5.93S66.65,85.46,66.42,85.51Z"/><path class="cls-7" d="M67.32,85.08c.18,0,.29.06.31.13s0,4.36.41,10.07c0,0-1-8-1-10C67,85.27,67.08,85.12,67.32,85.08Z"/><path class="cls-8" d="M72,84.74c.15,0,.29,0,.32.1s1.47,7.8,4.07,9.75c0,0-2.06-1.52-4.61-9.54A.26.26,0,0,1,72,84.74Z"/><path class="cls-9" d="M68.74,85.48a.34.34,0,0,1,.34.11s1.47,7.8,4.07,9.74c0,0-2.07-1.52-4.62-9.53A.27.27,0,0,1,68.74,85.48Z"/><path class="cls-10" d="M68.56,84c.16,0,.29,0,.33.1s1.47,7.8,4.07,9.73c0,0-2.07-1.52-4.61-9.53A.24.24,0,0,1,68.56,84Z"/><path class="cls-11" d="M67.76,85.91c.14,0,.28.07.29.16s.15,7.93,2.4,10.29c0,0-1.78-1.85-3-10.18A.26.26,0,0,1,67.76,85.91Z"/><path class="cls-12" d="M72.34,84c.19,0,.4,0,.38.22,0,0,1.15,6.7,5.71,7.59,0,0-3.71.54-6.26-7.48C72.17,84.36,72.09,84.09,72.34,84Z"/><path class="cls-13" d="M71.2,83.89c.19,0,.4,0,.38.22,0,0,1.15,6.7,5.71,7.59,0,0-3.72.54-6.26-7.48C71,84.22,71,84,71.2,83.89Z"/><path class="cls-14" d="M72.91,93.74c.31-3.64-1.52-8.19-1.52-8.19a.28.28,0,0,0-.29-.16.26.26,0,0,0-.26.2s1.33,5,1.77,6.8-.46,6.28-.46,6.28A22.77,22.77,0,0,0,72.91,93.74Z"/><path class="cls-15" d="M21.41,11.16l-.95,3.27s19.94,18.76,31.34,37a35.7,35.7,0,0,1,2.85,3.86,57.6,57.6,0,0,1,3.73,7.77,1.13,1.13,0,0,0-.06-.87c-1.87-5.33-3.29-15-3.76-18.4C50.43,37.68,21.41,11.16,21.41,11.16Z"/><path class="cls-16" d="M20.39,19.07s22.52,21.5,31.41,32.4c-11.4-18.28-31.34-37-31.34-37Z"/><path class="cls-17" d="M55.16,47.87a95.66,95.66,0,0,0,3.16,14.36A55.53,55.53,0,0,1,57,55.35C56.42,53.13,55.82,50.6,55.16,47.87Z"/><path class="cls-18" d="M59.22,2.37,54,0s.12,36.33,3,55.35c1.76,7.41,2.61,11.33,1.45,7.2a.75.75,0,0,1,0,.55c3.23,8.05,5.61,17.37,5.74,19.95.17,3.51,2.61,4.43,5.12,3.88,4.87-1.07,4.53-3.26,4.13-4.38s-1.16-2.11-3.87-8.08-4.13-13-6.91-24.63S59.22,2.37,59.22,2.37Z"/><path class="cls-19" d="M58.4,62.55c0-.09,0-.2-.08-.32C58.35,62.34,58.38,62.45,58.4,62.55Z"/><path class="cls-20" d="M57,55.35a55.53,55.53,0,0,0,1.37,6.88c0,.12.06.23.08.32C59.56,66.68,58.71,62.76,57,55.35Z"/><path class="cls-21" d="M54,0l-.35,2L52,1.34C52.35,7.91,54.67,44,54.67,44l-.11-.17c.14.94.34,2.36.6,4,.66,2.73,1.26,5.26,1.79,7.48C54.12,36.33,54,0,54,0Z"/><path class="cls-22" d="M76.31,86a.3.3,0,0,1,.11-.41A9.73,9.73,0,0,1,82,87.25c2.71,1.82,6.1.16,6.1.16s-3.3,1.91-5.7.41-5-2-5.74-1.65C76.68,86.17,76.37,86.16,76.31,86Z"/><path class="cls-23" d="M77.77,83.3c.16-.17.23-.13.33,0s2.16,3.7,8.6,5.49c4.88,1.35,6.56,1.33,6.56,1.33s-11.1-.27-15.53-6.37A.47.47,0,0,1,77.77,83.3Z"/><path class="cls-24" d="M77.85,85.34a.25.25,0,0,1,.33-.14,25.5,25.5,0,0,0,14.89,2.28s-8,1.73-15.17-1.75A.34.34,0,0,1,77.85,85.34Z"/><path class="cls-25" d="M77.33,86.19a.3.3,0,0,1,.36-.06s6.43,6.79,11.17,6.41c0,0-5.15.79-11.59-6A.32.32,0,0,1,77.33,86.19Z"/><path class="cls-26" d="M76.5,83.77a.3.3,0,0,0,0,.36s8.32,4.28,9.28,8.94c0,0-.67-5.18-9-9.45A.3.3,0,0,0,76.5,83.77Z"/><path class="cls-27" d="M75.4,87a.31.31,0,0,0,0,.36,10.74,10.74,0,0,1,4.36,3.09,9.42,9.42,0,0,0,7,3.42,10.39,10.39,0,0,1-6.36-3.2,12.72,12.72,0,0,0-4.73-3.79A.24.24,0,0,0,75.4,87Z"/><path class="cls-28" d="M75.81,86.15a.27.27,0,0,1,.33-.11s2.78,3.37,6.73,7.51c0,0-5.92-5.57-7.15-7.09A.31.31,0,0,1,75.81,86.15Z"/><path class="cls-29" d="M79.2,82.91c.09-.13.23-.18.31-.13s6.11,5.06,9.35,4.9c0,0-2.56.15-9.63-4.4A.25.25,0,0,1,79.2,82.91Z"/><path class="cls-30" d="M77.17,85.55c.11-.13.24-.18.32-.13s6.1,5.07,9.35,4.9c0,0-2.56.15-9.64-4.4A.26.26,0,0,1,77.17,85.55Z"/><path class="cls-31" d="M76.05,84.48c.1-.13.23-.18.31-.14s6.1,5.07,9.36,4.91c0,0-2.57.15-9.64-4.41A.24.24,0,0,1,76.05,84.48Z"/><path class="cls-32" d="M76.68,86.5c.12-.09.26-.13.32-.07s5.18,6,8.41,6.4c0,0-2.56-.29-8.77-6A.26.26,0,0,1,76.68,86.5Z"/><path class="cls-33" d="M79,82.13c.1-.16.33-.22.43-.07,0,0,5.15,4.42,9.23,2.2,0,0-2.52,2.78-9.59-1.77C79.09,82.49,78.86,82.33,79,82.13Z"/><path class="cls-34" d="M78,82.75c.12-.16.35-.22.45-.08s5.15,4.44,9.23,2.21c0,0-2.52,2.79-9.6-1.77A.25.25,0,0,1,78,82.75Z"/><path class="cls-35" d="M85.64,89.24c-2.08-3-6.39-5.34-6.39-5.34a.29.29,0,0,0-.32.07.24.24,0,0,0-.07.31s4.2,3,5.69,4.13,3.64,5.11,3.64,5.11A21.94,21.94,0,0,0,85.64,89.24Z"/><path class="cls-36" d="M21.31,6.29c1.58,2.2,7.3,10.25,8.85,13.54,1.81,3.84,5.34,16.4,7.37,24,1.6,6,7.49,15.19,12.83,21.95a48,48,0,0,0,5.83,5s6.45,4.63,9,9c3.1,2.9,5.42,5.35,6.22,6.26,2.06,2.39,4.84,2,7-.83,1.71-2.3,1.67-3.71,0-5.21s-8.07-5.77-14.95-10.93S53.67,62,47.19,50.79,36.07,20.4,32.5,15.25,24.87,4.83,24.87,4.83Z"/><path class="cls-37" d="M30.16,19.83c-1.55-3.29-7.27-11.34-8.85-13.54h0L22,7.62,18.7,9s1.28,1.23,6,7,8.64,23,11.55,29.06,7.2,12.83,7.2,12.83a76.4,76.4,0,0,0,6.87,7.84C45,59,39.13,49.81,37.53,43.82,35.5,36.23,32,23.67,30.16,19.83Z"/><path class="cls-38" d="M43.49,57.93C31.31,55.42,1.81,40.74,1.81,40.74s1.67,4,1.06,5.2c0,0,18.6,10.55,29.89,15.59,5.83,2.19,11,4.11,14.21,5.36,6.17,2.41,13.25,8.24,18.26,12.91-2.59-4.4-9-9-9-9C49.52,66.05,43.49,57.93,43.49,57.93Z"/><path class="cls-39" d="M0,47.92c4.72,3,20.22,8.9,32.76,13.61-11.29-5-29.89-15.59-29.89-15.59C2.25,47.13,0,47.92,0,47.92Z"/><path class="cls-40" d="M81.07,76.56a.3.3,0,0,1,.11-.4,9.32,9.32,0,0,1,5.39,1.62c2.61,1.74,5.86.15,5.86.15s-3.18,1.84-5.49.4-4.8-1.9-5.51-1.59C81.43,76.74,81.13,76.73,81.07,76.56Z"/><path class="cls-41" d="M82.48,74c.15-.17.22-.13.32,0s2.07,3.55,8.27,5.27a26.75,26.75,0,0,0,6.3,1.28s-10.66-.26-14.93-6.12A.43.43,0,0,1,82.48,74Z"/><path class="cls-42" d="M80.48,77.46a.22.22,0,0,1,.33.07,24.49,24.49,0,0,0,10.53,9.93s-7.29-3-11-9.67A.31.31,0,0,1,80.48,77.46Z"/><path class="cls-43" d="M82.06,76.76a.28.28,0,0,1,.34-.06s6.19,6.54,10.74,6.16c0,0-5,.78-11.14-5.76A.3.3,0,0,1,82.06,76.76Z"/><path class="cls-44" d="M81.26,74.44a.27.27,0,0,0,0,.34s8,4.11,8.91,8.59c0,0-.64-5-8.63-9.08A.29.29,0,0,0,81.26,74.44Z"/><path class="cls-45" d="M80.19,77.58a.28.28,0,0,0,0,.34,10.32,10.32,0,0,1,4.18,3,9.1,9.1,0,0,0,6.77,3.28A10,10,0,0,1,85,81.11a12.25,12.25,0,0,0-4.54-3.64A.24.24,0,0,0,80.19,77.58Z"/><path class="cls-46" d="M80.59,76.72c.12-.14.26-.14.32-.09s2.67,3.23,6.47,7.2c0,0-5.69-5.35-6.87-6.81A.3.3,0,0,1,80.59,76.72Z"/><path class="cls-47" d="M83.85,73.61c.1-.12.22-.17.3-.13s5.87,4.87,9,4.72c0,0-2.47.14-9.27-4.23A.26.26,0,0,1,83.85,73.61Z"/><path class="cls-48" d="M81.91,76.14c.09-.12.22-.17.3-.12s5.87,4.87,9,4.72c0,0-2.47.14-9.27-4.25A.23.23,0,0,1,81.91,76.14Z"/><path class="cls-49" d="M80.82,75.11c.1-.11.23-.17.3-.12s5.87,4.87,9,4.72c0,0-2.47.14-9.27-4.24A.25.25,0,0,1,80.82,75.11Z"/><path class="cls-50" d="M81.43,77.06a.27.27,0,0,1,.31-.07s5,5.79,8.08,6.16c0,0-2.46-.27-8.42-5.73A.24.24,0,0,1,81.43,77.06Z"/><path class="cls-51" d="M81.53,76A.43.43,0,0,1,82,76s5.71,2.88,9.78,2c0,0-2.42,1.37-10.11-1.74C81.65,76.23,81.4,76.13,81.53,76Z"/><path class="cls-52" d="M82.75,73.46c.1-.16.32-.21.42-.08s5,4.26,8.87,2.12c0,0-2.42,2.68-9.23-1.7A.23.23,0,0,1,82.75,73.46Z"/><path class="cls-53" d="M90.05,79.69c-2-2.88-6.15-5.13-6.15-5.13a.27.27,0,0,0-.31.07.24.24,0,0,0-.07.3s4,2.88,5.47,4,3.51,4.93,3.51,4.93A21.6,21.6,0,0,0,90.05,79.69Z"/><path class="cls-54" d="M35.1,32.41c-7.22-9.07-16.48-20.2-16.48-20.2l-2.77,2.26s26.32,30,27.05,38.38a33.15,33.15,0,0,1,12.36,3.43C48.21,51.52,41.79,40.81,35.1,32.41Z"/><path class="cls-55" d="M15.85,14.47l-.69-.62L11.7,15.49c2.61,3.08,22.23,26.41,26.42,30.78s4.78,6.58,4.78,6.58C42.17,44.46,15.85,14.47,15.85,14.47Z"/><polygon class="cls-56" points="1.74 30.34 1.89 34.15 3.85 32.62 1.74 30.34"/><path class="cls-57" d="M82.32,71.1c-2.93-.69-17.6-9.74-25.34-13.78a18.3,18.3,0,0,1-1.72-1A33.15,33.15,0,0,0,42.9,52.85C26,53.54,6.4,31.4,6.4,31.4S21.16,53.83,36.29,58.59a15.82,15.82,0,0,0,2,.32c10.93,1,26,7.49,32.05,11.29s5.78,5.67,7.86,7.52,3.47.73,5.16-1.94S84.5,71.61,82.32,71.1Z"/><path class="cls-58" d="M3.85,32.62l-2,1.53c7.65,9.19,23.46,22.13,34.4,24.44C21.16,53.83,6.4,31.4,6.4,31.4Z"/><path class="cls-59" d="M65.3,88.88a.32.32,0,0,0-.4.11,9.49,9.49,0,0,0,1.65,5.39c1.76,2.6.18,5.85.18,5.85s1.82-3.18.37-5.49-1.91-4.79-1.61-5.5C65.49,89.24,65.47,88.94,65.3,88.88Z"/><path class="cls-60" d="M62.74,90.31c-.17.15-.12.21,0,.32s3.56,2.05,5.31,8.23a27.59,27.59,0,0,1,1.32,6.31S69,94.5,63.14,90.26A.47.47,0,0,0,62.74,90.31Z"/><path class="cls-61" d="M66.2,88.29a.23.23,0,0,0,.07.33,24.47,24.47,0,0,1,10,10.48s-3-7.27-9.72-11A.31.31,0,0,0,66.2,88.29Z"/><path class="cls-62" d="M65.51,89.87a.27.27,0,0,0-.05.34s6.55,6.15,6.2,10.71c0,0,.76-5-5.8-11.1A.31.31,0,0,0,65.51,89.87Z"/><path class="cls-63" d="M63.18,89.08a.28.28,0,0,1,.35,0s4.14,8,8.63,8.87c0,0-5-.62-9.13-8.59A.33.33,0,0,1,63.18,89.08Z"/><path class="cls-64" d="M66.32,88a.26.26,0,0,1,.34,0,10.45,10.45,0,0,0,3,4.17A9,9,0,0,1,73,98.91a10,10,0,0,0-3.1-6.1,12.26,12.26,0,0,1-3.66-4.53A.23.23,0,0,1,66.32,88Z"/><path class="cls-65" d="M65.46,88.4a.27.27,0,0,0-.1.32s3.25,2.65,7.25,6.44c0,0-5.38-5.66-6.85-6.84A.3.3,0,0,0,65.46,88.4Z"/><path class="cls-66" d="M62.36,91.67c-.12.1-.16.23-.12.3s4.9,5.85,4.77,9c0,0,.12-2.46-4.29-9.24A.25.25,0,0,0,62.36,91.67Z"/><path class="cls-67" d="M64.89,89.72c-.12.1-.16.22-.12.3s4.9,5.85,4.76,9c0,0,.12-2.47-4.28-9.25A.25.25,0,0,0,64.89,89.72Z"/><path class="cls-68" d="M63.86,88.64c-.12.1-.17.23-.13.31s4.9,5.84,4.76,9c0,0,.13-2.46-4.28-9.24A.23.23,0,0,0,63.86,88.64Z"/><path class="cls-69" d="M65.81,89.24a.28.28,0,0,0-.07.32s5.81,4.94,6.19,8c0,0-.29-2.44-5.76-8.39A.24.24,0,0,0,65.81,89.24Z"/><path class="cls-70" d="M64.77,89.35a.45.45,0,0,0,0,.45s2.9,5.69,2,9.76c0,0,1.36-2.41-1.78-10.1C65,89.46,64.88,89.21,64.77,89.35Z"/><path class="cls-71" d="M62.2,90.57c-.15.11-.2.33-.06.42s4.28,4.94,2.16,8.87c0,0,2.67-2.43-1.74-9.22A.25.25,0,0,0,62.2,90.57Z"/><path class="cls-72" d="M68.48,97.84c-2.89-2-5.16-6.12-5.16-6.12a.28.28,0,0,1,.06-.31.24.24,0,0,1,.3-.07s2.91,4,4,5.46,4.94,3.47,4.94,3.47A20.46,20.46,0,0,1,68.48,97.84Z"/><path class="cls-73" d="M20.94,43.13C11.84,35.94.65,26.74.65,26.74L2.91,24S33,50.14,41.41,50.83A33.19,33.19,0,0,0,44.9,63.17C40.11,56.14,29.37,49.77,20.94,43.13Z"/><path class="cls-74" d="M2.91,24l-.63-.69L3.91,19.8C7,22.39,30.42,41.9,34.81,46.08s6.6,4.75,6.6,4.75C33,50.14,2.91,24,2.91,24Z"/><polygon class="cls-75" points="18.71 9.77 22.52 9.9 21 11.88 18.71 9.77"/><path class="cls-76" d="M59.85,90.16C59.15,87.23,50,72.6,46,64.89a16.51,16.51,0,0,0-1.05-1.72,33.19,33.19,0,0,1-3.49-12.34C42,34,19.79,14.43,19.79,14.43s22.5,14.65,27.34,29.76a17.58,17.58,0,0,1,.32,2c1.08,10.91,7.61,25.93,11.44,32s5.7,5.76,7.56,7.83.75,3.46-1.9,5.17S60.37,92.34,59.85,90.16Z"/><path class="cls-77" d="M21,11.88l1.52-2c9.22,7.61,22.23,23.36,24.61,34.29C42.29,29.08,19.79,14.43,19.79,14.43Z"/><path class="cls-78" d="M51.07,54.64l-2.18-.74s1.81,6.57,2.51,7.92l2.19.85S49.78,58.11,51.07,54.64Z"/><path class="cls-79" d="M56.89,63.79s-5-1.75-5.49-2c0,0,2.25,6.16,3,7.54l2.43,1.79S54.4,65.72,58,64.83Z"/><path class="cls-80" d="M59,64.66l.51,1.42s7.73,6,9.39,7a47.09,47.09,0,0,1-1.64-4.58A86.62,86.62,0,0,0,59,64.66Z"/><path class="cls-81" d="M63.22,78s6.63,5.66,8.29,8.22c0,0-1,.38-1.34.49a7.78,7.78,0,0,0-1.88-3.4,19.79,19.79,0,0,0-4.59-2.91S63.29,78.15,63.22,78Z"/></g></g></svg>