<svg xmlns="http://www.w3.org/2000/svg" xmlns:xlink="http://www.w3.org/1999/xlink" viewBox="0 0 101.29 76.88"><defs><style>.cls-1{fill:url(#linear-gradient);}.cls-2{fill:#ff5b00;opacity:0.42;}.cls-3{fill:url(#linear-gradient-2);}.cls-4,.cls-5,.cls-6,.cls-8{fill:#fff;}.cls-4{opacity:0.65;}.cls-5{opacity:0.5;}.cls-6{opacity:0.4;}.cls-7{stroke:#000;stroke-width:1.53px;opacity:0.13;}.cls-8{opacity:0.17;}</style><linearGradient id="linear-gradient" x1="44.8" y1="6.05" x2="57.23" y2="70.88" gradientUnits="userSpaceOnUse"><stop offset="0.01" stop-color="#ff6800"/><stop offset="0.51" stop-color="#ffb300"/><stop offset="0.62" stop-color="#ffad00"/><stop offset="0.76" stop-color="#ff9e00"/><stop offset="0.92" stop-color="#ff8300"/><stop offset="1" stop-color="#ff7400"/></linearGradient><linearGradient id="linear-gradient-2" x1="49.38" y1="7.02" x2="49.38" y2="24.03" gradientUnits="userSpaceOnUse"><stop offset="0.01" stop-color="#0a7700"/><stop offset="1" stop-color="#6c3"/></linearGradient></defs><title>Asset 3</title><g id="Layer_2" data-name="Layer 2"><g id="图层_1" data-name="图层 1"><path class="cls-1" d="M17.89,15.33s5.47-9.72,18.83-6.07c0,0,.61-6.69,13.36-6.69S65.27,5,66.48,6.82c0,0,18.84-9.11,29.16,10.33s4.25,22.48-.6,29.77c0,0-1.22,17.61-23.09,22.47,0,0-10.93,14.58-21.87,3,0,0-9.72,10.93-24.9-3,0,0-14,7.29-22.48-17.61S7.56,18.37,17.89,15.33Z"/><path class="cls-2" d="M22.19,68.18a37.69,37.69,0,0,1-4.86-32.67S20,24.17,29.75,22c0,0,12.15-2.84,17,9.31,0,0,7-11.74,11.88-8.77s2.16,2.16,2.16,2.16-3.24-4.05-.54-6.21-3.78-3.78-3.78-3.78l-3-10.53s1.35-2.43,2.43-1.62,8.94,1,10.54,4.25a60.31,60.31,0,0,0,12.14-.2s2.16.27-.27,1.08-12.69,2.7-7.56,2.7,15.66-3,20.52,2.43c0,0-7.83-3-13.77,1.08,0,0-.54.81,3,1.89s14,1.08,15.12,24.57c0,0-2.16-18.63-14-21.06s-15.93,1.62-14,5.4,9.72,18.36,9.72,24.57S76.19,63.32,74,66c0,0,3-10.53.81-16.2S69.71,28.49,60.26,27.41,50,33.08,50.81,37.13s4.86,18.36,1.62,26.73c0,0-1.35,5.67-2.43-5.94s-6.21-27.14-11.34-29S19.22,27.41,19.22,44.42s3.51,23.49,3.51,23.49"/><path class="cls-3" d="M40.82,15,42.44,4.46s-.27-3,5.67-3.51,8.64-.27,7.56,2.43l1.62,10s4.05,3,3,5.13l-1.62.81-1.35,1.62a2.75,2.75,0,0,1-3,1.35c-1.89-.54-1.89-1.35-5.13-.27s-7.29,0-7.56-2.16S34.88,19,40.82,15Z"/><path class="cls-4" d="M59.31,40.64c1.59,1.55,1.8,4.09,3.13,5.64a9.9,9.9,0,0,0,1-5.58c2.28-.22,3.74,7.06,3.2,9.25-1.36,5.58-5.69-1-8.44,2.8-.53-2-4.25-17.52,1.13-12.92"/><path class="cls-4" d="M74.3,38.61c2.41,1.23,1.77,4,3.16,5.63-.26-1.5.39-2.23.89-3.24,1.4,1.29,2,3.48,4,3.62a6.93,6.93,0,0,0,.13-4.34c.47.2,1.49.14,2,.31,1.18-2.64-1.83-6.11-4-7.61a11.18,11.18,0,0,0,.66,4.39c-1.77-1.16-2.58-3.46-4.72-4A10.82,10.82,0,0,0,77.07,39a11,11,0,0,1-2-.75"/><path class="cls-4" d="M55.67,47.52c.09-2-.86-3.81-2.78-4-.14,2.93-.72,7.18,1.48,9.21.26-2.21,1.78-4.57,1.3-6.44"/><path class="cls-5" d="M45.14,44.69C45.43,48,44.47,49,41.9,50c-1.2.42-2.22-.6-3.66,0s-2.14,2.83-3.65,3.57c-6.33,3.06-2.13-7.67-9.23-6.87,1.15-3.18.42-5.75,3.17-6.42.16,5.19,3.71,4.51,5.67-.4,1.62-4,3.6-4.79,5.27,4.86,1.4.39,4.33,1,5.26,0"/><path class="cls-6" d="M15.17,34.56A22,22,0,0,0,12.67,41c-1.37-.46-1.73-1.06-1.61-2.72-2.27.13-2,2.75-4.34,3.13-.19-3.93-1.14-11.56,4.74-11.23.1,1.56,0,3.18.12,4.74a5.66,5.66,0,0,0,3.18-.35"/><path class="cls-7" d="M39.87,18.36A36.21,36.21,0,0,0,43.92,4.19s-.4,10.93-.4,12.15-.81,4.45.81,6.07l-2.7-2.56Z"/><path class="cls-7" d="M45.54,3.38S49.59.54,49.59,7.83L49.19,18S51.62,6.21,52,4.19,52,.14,49.59,1A11.42,11.42,0,0,0,45.54,3.38Z"/><path class="cls-7" d="M56.07,23.22s.81-13-.4-16.6l3,12.69Z"/><path class="cls-8" d="M46.76,20.39s2.83-10.13,0-13.77a50.39,50.39,0,0,0-1.22,5.67C44.73,16.74,43.11,22.82,46.76,20.39Z"/><path class="cls-8" d="M53.64,4.19c.69,5.81-.8,8.32-.4,13.77,4-.35,1.35-1.82,2-2,.36-4.57,2.38-7.45-.81-11.74"/></g></g></svg>