<svg xmlns="http://www.w3.org/2000/svg" xmlns:xlink="http://www.w3.org/1999/xlink" viewBox="0 0 83.62 96.21"><defs><style>.cls-1{fill:url(#radial-gradient);}.cls-2{fill:#f86d58;}.cls-3{fill:#f39c8f;}.cls-4{fill:url(#radial-gradient-2);}.cls-5{fill:url(#radial-gradient-3);}.cls-6{fill:url(#radial-gradient-4);}.cls-7{fill:url(#radial-gradient-5);}.cls-8{fill:url(#linear-gradient);}.cls-9{fill:url(#radial-gradient-6);}.cls-10{fill:#ff2302;}.cls-11{fill:#ff2403;}.cls-12{fill:#ff2505;}.cls-13{fill:#ff2606;}.cls-14{fill:#ff2807;}.cls-15{fill:#fe2909;}.cls-16{fill:#fe2a0a;}.cls-17{fill:#fe2b0b;}.cls-18{fill:#fe2c0d;}.cls-19{fill:#fe2d0e;}.cls-20{fill:#fe2f0f;}.cls-21{fill:#fe3011;}.cls-22{fill:#fe3112;}.cls-23{fill:#fe3213;}.cls-24{fill:#fd3315;}.cls-25{fill:#fd3416;}.cls-26{fill:#fd3517;}.cls-27{fill:#fd3719;}.cls-28{fill:#fd381a;}.cls-29{fill:#fd391c;}.cls-30{fill:#fd3a1d;}.cls-31{fill:#fd3b1e;}.cls-32{fill:#fc3c20;}.cls-33{fill:#fc3e21;}.cls-34{fill:#fc3f22;}.cls-35{fill:#fc4024;}.cls-36{fill:#fc4125;}.cls-37{fill:#fc4226;}.cls-38{fill:#fc4328;}.cls-39{fill:#fc4429;}.cls-40{fill:#fc462a;}.cls-41{fill:#fb472c;}.cls-42{fill:#fb482d;}.cls-43{fill:#fb492e;}.cls-44{fill:#fb4a30;}.cls-45{fill:#fb4b31;}.cls-46{fill:#fb4c32;}.cls-47{fill:#fb4e34;}.cls-48{fill:#fb4f35;}.cls-49{fill:#fb5036;}.cls-50{fill:#fa5138;}.cls-51{fill:#fa5239;}.cls-52{fill:#fa533a;}.cls-53{fill:#fa553c;}.cls-54{fill:#fa563d;}.cls-55{fill:#fa573e;}.cls-56{fill:#fa5840;}.cls-57{fill:#fa5941;}.cls-58{fill:#fa5a42;}.cls-59{fill:#f95b44;}.cls-60{fill:#f95d45;}.cls-61{fill:#f95e46;}.cls-62{fill:#f95f48;}.cls-63{fill:#f96049;}.cls-64{fill:#f9614b;}.cls-65{fill:#f9624c;}.cls-66{fill:#f9644d;}.cls-67{fill:#f8654f;}.cls-68{fill:#f86650;}.cls-69{fill:#f86751;}.cls-70{fill:#f86853;}.cls-71{fill:#f86954;}.cls-72{fill:#f86a55;}.cls-73{fill:#f86c57;}.cls-74{fill:#f86e59;}.cls-75{fill:#f76f5b;}.cls-76{fill:#f7705c;}.cls-77{fill:#f7715d;}.cls-78{fill:#f7735f;}.cls-79{fill:#f77460;}.cls-80{fill:#f77561;}.cls-81{fill:#f77663;}.cls-82{fill:#f77764;}.cls-83{fill:#f77865;}.cls-84{fill:#f67967;}.cls-85{fill:#f67b68;}.cls-86{fill:#f67c69;}.cls-87{fill:#f67d6b;}.cls-88{fill:#f67e6c;}.cls-89{fill:#f67f6d;}.cls-90{fill:#f6806f;}.cls-91{fill:#f68170;}.cls-92{fill:#f68371;}.cls-93{fill:#f58473;}.cls-94{fill:#f58574;}.cls-95{fill:#f58675;}.cls-96{fill:#f58777;}.cls-97{fill:#f58878;}.cls-98{fill:#f58a7a;}.cls-99{fill:#f58b7b;}.cls-100{fill:#f58c7c;}.cls-101{fill:#f48d7e;}.cls-102{fill:#f48e7f;}.cls-103{fill:#f48f80;}.cls-104{fill:#f49082;}.cls-105{fill:#f49283;}.cls-106{fill:#f49384;}.cls-107{fill:#f49486;}.cls-108{fill:#f49587;}.cls-109{fill:#f49688;}.cls-110{fill:#f3978a;}.cls-111{fill:#f3998b;}.cls-112{fill:#f39a8c;}.cls-113{fill:#f39b8e;}</style><radialGradient id="radial-gradient" cx="-12.52" cy="-1284.79" r="94.22" gradientTransform="translate(29.94 796.44) scale(0.59)" gradientUnits="userSpaceOnUse"><stop offset="0" stop-color="#ebebeb"/><stop offset="0.34" stop-color="#ff2302"/><stop offset="0.5" stop-color="#ee1801"/><stop offset="0.78" stop-color="#c80000"/></radialGradient><radialGradient id="radial-gradient-2" cx="20.87" cy="-1307.45" r="54.49" gradientTransform="translate(29.94 796.44) scale(0.59)" gradientUnits="userSpaceOnUse"><stop offset="0" stop-color="#91ff00"/><stop offset="0.63" stop-color="#0a0"/><stop offset="1" stop-color="#007800"/></radialGradient><radialGradient id="radial-gradient-3" cx="40.33" cy="-1278.7" r="12.76" gradientTransform="translate(29.94 796.44) scale(0.59)" gradientUnits="userSpaceOnUse"><stop offset="0" stop-color="#0a0"/><stop offset="1" stop-color="#005b00"/></radialGradient><radialGradient id="radial-gradient-4" cx="59.41" cy="-1309.12" r="21.48" xlink:href="#radial-gradient-3"/><radialGradient id="radial-gradient-5" cx="5.17" cy="-1282.53" r="15.97" xlink:href="#radial-gradient-3"/><linearGradient id="linear-gradient" x1="12.13" y1="-1294.11" x2="18.77" y2="-1294.11" gradientTransform="translate(29.94 796.44) scale(0.59)" gradientUnits="userSpaceOnUse"><stop offset="0" stop-color="#91e600"/><stop offset="0.63" stop-color="#008200"/><stop offset="1" stop-color="#004600"/></linearGradient><radialGradient id="radial-gradient-6" cx="15.42" cy="-1297.47" r="2.73" gradientTransform="translate(29.94 796.44) scale(0.59)" gradientUnits="userSpaceOnUse"><stop offset="0" stop-color="#99cf16"/><stop offset="1" stop-color="#73be1e"/></radialGradient></defs><title>Asset 1</title><g id="Layer_2" data-name="Layer 2"><g id="图层_1" data-name="图层 1"><path class="cls-1" d="M43.7,18.93c5,.29,17.55-1.28,27.8,9,0,0,12.12,6.11,12.12,26.32S72.88,80,67.26,85.27,50,96.11,41.53,96.21,15.32,89,6.74,77.08s-8.08-27-3.45-36.17c0,0,10.25-14.79,16.27-17.55s15.57-6,19.31-5.52A16.44,16.44,0,0,1,43.7,18.93Z"/><path class="cls-2" d="M28.53,27.7c1,.46,2.66.4,7.09-1.48s.59-3.25-3.45-2.36S26.26,26.72,28.53,27.7Z"/><path class="cls-3" d="M52.87,24.15c5.3.53,9.66.6,4.44,2.07s-7,2.86-9.07,1.88S50.9,24,52.87,24.15Z"/><path class="cls-4" d="M33.85,26.81c2-1.49,1.67-4.73,1.08-13.4S40.45,1.88,43,.69s3.65-.78,1,.69S37.39,4.93,37.2,11s.69,6.51,3.54,11,2,5.12,1.88,6.21.2.09,2.76-1.78,8.18-3.75,12.32-6.51S65.88,14,73,13.8,84.61,15,77.71,15.08,65.88,16,59.28,21.2s-9.17,6.5-10.16,9.56c0,0,5.92-.2,8.88,4.14S62.14,43,62.23,45.35s-.69,3.54-1.87-.4S56.22,33.12,48.73,34c0,0-3.15.79-3.45,1.87s.69,7.59-.79,9c0,0-2-6.5-4.83-7.49a51.41,51.41,0,0,1-6.21-2.66c-1.18-.59-2.76-.59-3.84-1.09a14,14,0,0,0-8.58.1c-3.05,1.29-5.91,6-6.7,9.57,0,0-.49-5.92,3.55-9.07s9-2,10.65-3.06c0,0-3-4.43-6.51-6.21s-6.11-2-10-3.45-8-5.72-8.87-7.88c0,0,4.73,5.61,9.07,6.7s12,3.05,14.79,4.73S32,28.19,33.85,26.81Z"/><path class="cls-5" d="M61.78,47.51c-.33.1-.83-.59-1.42-2.56C59.18,41,56.22,33.12,48.73,34c0,0-3.15.79-3.45,1.87,0,0,3.3-1.73,5.81-1.28,4.44.79,7.5,5.32,8.09,8.38A7.69,7.69,0,0,0,61.78,47.51Z"/><path class="cls-6" d="M49.12,30.76c1-3.06,3.55-4.34,10.16-9.56s11.53-6,18.43-6.12a13.52,13.52,0,0,0,3.17-.27,49.32,49.32,0,0,0-6.82.08c-4,.29-10.25,1.77-14.39,5.32S48.93,28,48.73,30.36Z"/><path class="cls-7" d="M44.49,44.85s-2-6.5-4.83-7.49a51.41,51.41,0,0,1-6.21-2.66c-1.18-.59-2.76-.59-3.84-1.09a14,14,0,0,0-8.58.1,11.22,11.22,0,0,1,6.51-1.18c3.94.4,3.05-1.58,5.91.4s2.57,2,4.24,2.66,4.53,2.07,5.13,3.74S44.59,42.88,44.49,44.85Z"/><path class="cls-8" d="M36.87,29.67a2.64,2.64,0,0,1,.72,1.78v2.46a3.6,3.6,0,0,0,2.37.4c1.18-.3.78-1.48.78-2.37V29.38Z"/><path class="cls-9" d="M40.76,29.67c0,.66-.87,1.19-1.95,1.19s-1.94-.53-1.94-1.19.87-1.19,1.94-1.19S40.76,29,40.76,29.67Z"/><path class="cls-10" d="M45.89,43.94c.53,2.25,3.63,3.46,6.93,2.69s5.57-3.22,5-5.48-3.62-3.45-6.93-2.69S45.37,41.68,45.89,43.94Z"/><path class="cls-11" d="M45.92,43.93c.52,2.24,3.61,3.44,6.89,2.67s5.53-3.2,5-5.44-3.61-3.43-6.89-2.67S45.4,41.69,45.92,43.93Z"/><path class="cls-12" d="M46,43.92c.52,2.23,3.59,3.42,6.85,2.66s5.49-3.18,5-5.41-3.59-3.41-6.85-2.65S45.44,41.69,46,43.92Z"/><path class="cls-13" d="M46,43.91c.52,2.22,3.57,3.4,6.81,2.65s5.46-3.16,5-5.38-3.57-3.39-6.81-2.64S45.47,41.7,46,43.91Z"/><path class="cls-14" d="M46,43.91c.52,2.2,3.54,3.37,6.77,2.62s5.42-3.14,4.91-5.34-3.54-3.37-6.76-2.62S45.5,41.71,46,43.91Z"/><path class="cls-15" d="M46,43.9c.51,2.18,3.52,3.35,6.73,2.61s5.39-3.12,4.88-5.31-3.52-3.35-6.72-2.6S45.54,41.71,46,43.9Z"/><path class="cls-16" d="M46.08,43.89c.5,2.17,3.49,3.33,6.67,2.59s5.36-3.1,4.86-5.27-3.5-3.33-6.68-2.59S45.57,41.72,46.08,43.89Z"/><path class="cls-17" d="M46.11,43.89c.5,2.15,3.47,3.3,6.63,2.57s5.32-3.08,4.82-5.24-3.47-3.31-6.63-2.57S45.61,41.73,46.11,43.89Z"/><path class="cls-18" d="M46.14,43.88c.5,2.14,3.45,3.29,6.59,2.56s5.29-3.06,4.79-5.21-3.45-3.29-6.59-2.55S45.64,41.73,46.14,43.88Z"/><path class="cls-19" d="M46.17,43.87c.49,2.13,3.43,3.27,6.55,2.54s5.25-3,4.76-5.17S54.05,38,50.93,38.7,45.68,41.74,46.17,43.87Z"/><path class="cls-20" d="M46.2,43.86c.49,2.12,3.41,3.25,6.51,2.53s5.22-3,4.72-5.14S54,38,50.93,38.73,45.71,41.75,46.2,43.86Z"/><path class="cls-21" d="M46.23,43.86c.49,2.1,3.38,3.22,6.46,2.5s5.19-3,4.7-5.1S54,38,50.93,38.75,45.74,41.75,46.23,43.86Z"/><path class="cls-22" d="M46.26,43.85c.49,2.09,3.36,3.2,6.42,2.49s5.15-3,4.67-5.07-3.36-3.2-6.42-2.49S45.78,41.76,46.26,43.85Z"/><path class="cls-23" d="M46.29,43.84c.49,2.07,3.34,3.18,6.38,2.48s5.12-3,4.64-5S54,38.1,50.93,38.81,45.81,41.77,46.29,43.84Z"/><path class="cls-24" d="M46.32,43.83c.48,2.06,3.32,3.16,6.34,2.46s5.08-2.94,4.6-5S54,38.13,50.93,38.83,45.85,41.77,46.32,43.83Z"/><path class="cls-25" d="M46.35,43.83c.48,2,3.3,3.14,6.3,2.44s5.05-2.92,4.57-5-3.29-3.14-6.29-2.44S45.88,41.78,46.35,43.83Z"/><path class="cls-26" d="M46.39,43.82c.47,2,3.27,3.12,6.25,2.43s5-2.91,4.54-4.94-3.27-3.12-6.25-2.42S45.91,41.79,46.39,43.82Z"/><path class="cls-27" d="M46.42,43.81c.47,2,3.25,3.1,6.2,2.41s5-2.88,4.52-4.9-3.25-3.09-6.21-2.41S46,41.79,46.42,43.81Z"/><path class="cls-28" d="M46.45,43.81c.46,2,3.22,3.07,6.16,2.39s5-2.86,4.48-4.87-3.22-3.07-6.16-2.39S46,41.8,46.45,43.81Z"/><path class="cls-29" d="M46.48,43.8c.46,2,3.2,3.05,6.12,2.37s4.91-2.84,4.45-4.83-3.2-3.05-6.12-2.37S46,41.81,46.48,43.8Z"/><path class="cls-30" d="M46.51,43.79c.46,2,3.18,3,6.08,2.36s4.88-2.82,4.42-4.8-3.18-3-6.08-2.36S46.05,41.81,46.51,43.79Z"/><path class="cls-31" d="M46.54,43.78c.46,2,3.16,3,6,2.35s4.84-2.81,4.38-4.77-3.15-3-6-2.34S46.08,41.82,46.54,43.78Z"/><path class="cls-32" d="M46.57,43.78c.45,1.94,3.14,3,6,2.32s4.8-2.78,4.35-4.73-3.14-3-6-2.32S46.12,41.83,46.57,43.78Z"/><path class="cls-33" d="M46.6,43.77c.45,1.93,3.12,3,5.95,2.31s4.78-2.76,4.33-4.7-3.12-3-6-2.31S46.15,41.83,46.6,43.77Z"/><path class="cls-34" d="M46.63,43.76c.45,1.92,3.1,3,5.91,2.3s4.74-2.75,4.29-4.67-3.09-3-5.9-2.29S46.19,41.84,46.63,43.76Z"/><path class="cls-35" d="M46.66,43.75c.45,1.91,3.07,2.93,5.87,2.28s4.71-2.72,4.26-4.63-3.07-2.92-5.86-2.28S46.22,41.85,46.66,43.75Z"/><path class="cls-36" d="M46.69,43.75c.45,1.89,3.05,2.9,5.83,2.26s4.67-2.71,4.23-4.6-3-2.9-5.82-2.26S46.26,41.85,46.69,43.75Z"/><path class="cls-37" d="M46.73,43.74c.43,1.88,3,2.88,5.78,2.24s4.63-2.68,4.2-4.56-3-2.88-5.78-2.24S46.29,41.86,46.73,43.74Z"/><path class="cls-38" d="M46.76,43.73c.43,1.87,3,2.86,5.73,2.23s4.61-2.66,4.17-4.53-3-2.86-5.74-2.23S46.32,41.87,46.76,43.73Z"/><path class="cls-39" d="M46.79,43.73c.43,1.85,3,2.84,5.69,2.21s4.57-2.65,4.14-4.5-3-2.84-5.7-2.21S46.36,41.87,46.79,43.73Z"/><path class="cls-40" d="M46.82,43.72c.43,1.83,3,2.82,5.65,2.19s4.53-2.62,4.11-4.46-3-2.82-5.66-2.19S46.39,41.88,46.82,43.72Z"/><path class="cls-41" d="M46.85,43.71c.42,1.82,2.94,2.8,5.61,2.18s4.5-2.61,4.08-4.43-2.94-2.8-5.62-2.18S46.43,41.89,46.85,43.71Z"/><path class="cls-42" d="M46.88,43.7c.42,1.81,2.91,2.78,5.57,2.16s4.46-2.58,4-4.39-2.91-2.78-5.57-2.16S46.46,41.89,46.88,43.7Z"/><path class="cls-43" d="M46.91,43.7c.42,1.79,2.89,2.75,5.53,2.14s4.43-2.56,4-4.36-2.89-2.75-5.53-2.14S46.49,41.9,46.91,43.7Z"/><path class="cls-44" d="M46.94,43.69c.42,1.78,2.87,2.73,5.48,2.13s4.4-2.55,4-4.33-2.87-2.73-5.49-2.13S46.53,41.91,46.94,43.69Z"/><path class="cls-45" d="M47,43.68c.41,1.77,2.85,2.71,5.44,2.11s4.36-2.52,4-4.29-2.84-2.71-5.44-2.11S46.56,41.91,47,43.68Z"/><path class="cls-46" d="M47,43.67c.41,1.76,2.83,2.7,5.4,2.1s4.33-2.51,3.92-4.26-2.82-2.69-5.4-2.09S46.6,41.92,47,43.67Z"/><path class="cls-47" d="M47,43.67c.4,1.74,2.8,2.67,5.35,2.07s4.29-2.48,3.89-4.22-2.8-2.67-5.36-2.08S46.63,41.93,47,43.67Z"/><path class="cls-48" d="M47.07,43.66c.4,1.73,2.78,2.65,5.31,2.06s4.26-2.46,3.85-4.19-2.77-2.65-5.31-2.06S46.67,41.93,47.07,43.66Z"/><path class="cls-49" d="M47.1,43.65c.39,1.71,2.75,2.63,5.26,2.05s4.23-2.45,3.83-4.16-2.75-2.63-5.27-2S46.7,41.94,47.1,43.65Z"/><path class="cls-50" d="M47.13,43.65c.39,1.69,2.73,2.6,5.22,2s4.19-2.42,3.8-4.12-2.73-2.61-5.23-2S46.73,42,47.13,43.65Z"/><path class="cls-51" d="M47.16,43.64c.39,1.68,2.71,2.58,5.18,2s4.16-2.41,3.77-4.09-2.72-2.59-5.19-2S46.77,42,47.16,43.64Z"/><path class="cls-52" d="M47.19,43.63c.39,1.67,2.69,2.56,5.14,2s4.12-2.39,3.73-4.06-2.69-2.56-5.14-2S46.8,42,47.19,43.63Z"/><path class="cls-53" d="M47.22,43.62c.39,1.66,2.67,2.55,5.1,2s4.09-2.37,3.7-4-2.67-2.54-5.1-2S46.84,42,47.22,43.62Z"/><path class="cls-54" d="M47.25,43.62c.38,1.64,2.65,2.52,5.06,2s4-2.35,3.67-4-2.65-2.52-5.06-2S46.87,42,47.25,43.62Z"/><path class="cls-55" d="M47.28,43.61c.38,1.63,2.63,2.5,5,1.94s4-2.32,3.64-3.95-2.62-2.5-5-2S46.9,42,47.28,43.61Z"/><path class="cls-56" d="M47.31,43.6c.38,1.62,2.6,2.48,5,1.93s4-2.31,3.61-3.92-2.6-2.48-5-1.93S46.94,42,47.31,43.6Z"/><path class="cls-57" d="M47.34,43.59c.38,1.6,2.58,2.46,4.93,1.92s3.95-2.29,3.58-3.89-2.58-2.46-4.93-1.91S47,42,47.34,43.59Z"/><path class="cls-58" d="M47.38,43.59c.36,1.58,2.55,2.43,4.88,1.89s3.92-2.26,3.55-3.85-2.56-2.44-4.89-1.9S47,42,47.38,43.59Z"/><path class="cls-59" d="M47.41,43.58c.36,1.57,2.53,2.41,4.84,1.88s3.88-2.25,3.51-3.82-2.53-2.42-4.84-1.88S47,42,47.41,43.58Z"/><path class="cls-60" d="M47.44,43.57c.36,1.56,2.51,2.4,4.8,1.87s3.84-2.23,3.48-3.79-2.51-2.39-4.8-1.86S47.08,42,47.44,43.57Z"/><path class="cls-61" d="M47.47,43.56c.36,1.55,2.49,2.38,4.75,1.85S56,43.2,55.68,41.66s-2.49-2.37-4.76-1.85S47.11,42,47.47,43.56Z"/><path class="cls-62" d="M47.5,43.56c.36,1.53,2.47,2.35,4.71,1.83S56,43.2,55.63,41.67s-2.46-2.35-4.71-1.83S47.14,42,47.5,43.56Z"/><path class="cls-63" d="M47.53,43.55c.35,1.52,2.44,2.33,4.67,1.81s3.75-2.17,3.39-3.68-2.44-2.33-4.67-1.81S47.18,42,47.53,43.55Z"/><path class="cls-64" d="M47.56,43.54c.35,1.51,2.42,2.31,4.63,1.8s3.71-2.15,3.36-3.65-2.42-2.31-4.63-1.8S47.21,42,47.56,43.54Z"/><path class="cls-65" d="M47.59,43.54c.35,1.48,2.4,2.28,4.59,1.77s3.67-2.12,3.33-3.61-2.4-2.29-4.59-1.78S47.25,42,47.59,43.54Z"/><path class="cls-66" d="M47.62,43.53C48,45,50,45.79,52.16,45.29s3.65-2.11,3.3-3.58-2.37-2.27-4.54-1.77S47.28,42.05,47.62,43.53Z"/><path class="cls-67" d="M47.65,43.52C48,45,50,45.77,52.15,45.27s3.61-2.09,3.27-3.55-2.35-2.25-4.5-1.75S47.31,42.06,47.65,43.52Z"/><path class="cls-68" d="M47.68,43.51C48,45,50,45.74,52.14,45.24s3.57-2.07,3.24-3.51S53.05,39.5,50.92,40,47.35,42.06,47.68,43.51Z"/><path class="cls-69" d="M47.72,43.51c.33,1.43,2.31,2.2,4.41,1.71s3.54-2,3.2-3.48S53,39.54,50.92,40,47.38,42.07,47.72,43.51Z"/><path class="cls-70" d="M47.75,43.5c.33,1.42,2.28,2.18,4.37,1.7s3.5-2,3.17-3.45-2.28-2.18-4.37-1.7S47.42,42.08,47.75,43.5Z"/><path class="cls-71" d="M47.78,43.49c.32,1.41,2.26,2.16,4.33,1.68s3.47-2,3.14-3.41S53,39.6,50.92,40.08,47.45,42.08,47.78,43.49Z"/><path class="cls-72" d="M47.81,43.48c.32,1.4,2.24,2.14,4.28,1.67s3.44-2,3.12-3.38S53,39.63,50.92,40.1,47.49,42.09,47.81,43.48Z"/><path class="cls-73" d="M47.84,43.48c.32,1.38,2.22,2.11,4.24,1.64s3.4-2,3.08-3.35-2.22-2.11-4.24-1.64S47.52,42.1,47.84,43.48Z"/><path class="cls-2" d="M47.87,43.47c.32,1.36,2.2,2.09,4.2,1.63s3.37-2,3-3.32-2.2-2.09-4.2-1.62S47.55,42.11,47.87,43.47Z"/><path class="cls-74" d="M47.9,43.46c.32,1.35,2.18,2.08,4.16,1.62s3.33-1.93,3-3.29-2.18-2.07-4.16-1.61S47.59,42.11,47.9,43.46Z"/><path class="cls-75" d="M47.93,43.46c.31,1.33,2.16,2,4.12,1.59s3.3-1.91,3-3.24-2.15-2.06-4.11-1.6S47.62,42.12,47.93,43.46Z"/><path class="cls-76" d="M48,43.45c.31,1.32,2.13,2,4.07,1.58s3.27-1.89,3-3.22-2.13-2-4.07-1.57S47.66,42.12,48,43.45Z"/><path class="cls-77" d="M48,43.44c.31,1.31,2.11,2,4,1.57s3.23-1.88,2.93-3.19-2.11-2-4-1.56S47.69,42.13,48,43.44Z"/><path class="cls-78" d="M48,43.43c.3,1.3,2.08,2,4,1.55s3.2-1.85,2.9-3.15-2.09-2-4-1.54S47.72,42.14,48,43.43Z"/><path class="cls-79" d="M48.06,43.43c.29,1.28,2.06,2,3.94,1.53s3.16-1.83,2.86-3.12-2.06-2-3.94-1.53S47.76,42.14,48.06,43.43Z"/><path class="cls-80" d="M48.09,43.42c.29,1.27,2,1.94,3.9,1.51s3.13-1.81,2.83-3.08-2-1.94-3.9-1.51S47.79,42.15,48.09,43.42Z"/><path class="cls-81" d="M48.12,43.41c.29,1.26,2,1.93,3.86,1.5s3.09-1.79,2.8-3-2-1.92-3.86-1.49S47.83,42.16,48.12,43.41Z"/><path class="cls-82" d="M48.15,43.4c.29,1.24,2,1.91,3.81,1.49s3.06-1.78,2.77-3-2-1.9-3.81-1.48S47.86,42.16,48.15,43.4Z"/><path class="cls-83" d="M48.18,43.4c.28,1.22,2,1.88,3.77,1.46s3-1.75,2.74-3-2-1.88-3.77-1.46S47.9,42.17,48.18,43.4Z"/><path class="cls-84" d="M48.21,43.39c.28,1.21,1.95,1.86,3.73,1.45s3-1.73,2.71-3S52.7,40,50.92,40.45,47.93,42.18,48.21,43.39Z"/><path class="cls-85" d="M48.24,43.38c.28,1.2,1.93,1.84,3.69,1.43s3-1.71,2.68-2.91-1.93-1.83-3.69-1.43S48,42.18,48.24,43.38Z"/><path class="cls-86" d="M48.27,43.38c.28,1.18,1.91,1.81,3.65,1.41s2.92-1.69,2.64-2.88-1.9-1.81-3.64-1.41S48,42.19,48.27,43.38Z"/><path class="cls-87" d="M48.3,43.37c.28,1.17,1.89,1.79,3.61,1.4s2.88-1.68,2.61-2.85-1.88-1.79-3.6-1.39S48,42.2,48.3,43.37Z"/><path class="cls-88" d="M48.33,43.36c.27,1.16,1.87,1.78,3.56,1.38s2.86-1.65,2.59-2.81-1.86-1.77-3.56-1.38S48.07,42.2,48.33,43.36Z"/><path class="cls-89" d="M48.37,43.35c.26,1.15,1.84,1.76,3.51,1.37s2.82-1.63,2.55-2.78-1.83-1.75-3.51-1.36S48.1,42.21,48.37,43.35Z"/><path class="cls-90" d="M48.4,43.35c.26,1.12,1.81,1.73,3.47,1.34s2.79-1.61,2.52-2.74-1.81-1.73-3.47-1.34S48.13,42.22,48.4,43.35Z"/><path class="cls-91" d="M48.43,43.34c.26,1.11,1.79,1.71,3.43,1.33s2.75-1.59,2.49-2.71-1.8-1.71-3.43-1.33S48.17,42.22,48.43,43.34Z"/><path class="cls-92" d="M48.46,43.33c.25,1.1,1.77,1.69,3.39,1.32s2.71-1.58,2.46-2.68-1.78-1.69-3.39-1.31S48.2,42.23,48.46,43.33Z"/><path class="cls-93" d="M48.49,43.32c.25,1.09,1.75,1.67,3.34,1.3s2.69-1.55,2.43-2.64-1.75-1.67-3.34-1.29S48.24,42.24,48.49,43.32Z"/><path class="cls-94" d="M48.52,43.32c.25,1.07,1.73,1.65,3.3,1.28s2.65-1.53,2.4-2.61-1.73-1.64-3.3-1.28S48.27,42.24,48.52,43.32Z"/><path class="cls-95" d="M48.55,43.31c.25,1.06,1.71,1.63,3.26,1.27s2.61-1.52,2.37-2.58-1.71-1.62-3.26-1.26S48.31,42.25,48.55,43.31Z"/><path class="cls-96" d="M48.58,43.3c.24,1.05,1.69,1.61,3.22,1.25s2.58-1.49,2.33-2.54-1.68-1.6-3.21-1.25S48.34,42.26,48.58,43.3Z"/><path class="cls-97" d="M48.61,43.3c.24,1,1.66,1.58,3.18,1.23s2.54-1.48,2.3-2.51-1.66-1.58-3.17-1.23S48.37,42.26,48.61,43.3Z"/><path class="cls-98" d="M48.64,43.29c.24,1,1.64,1.56,3.14,1.21s2.51-1.45,2.27-2.47-1.64-1.56-3.13-1.21S48.41,42.27,48.64,43.29Z"/><path class="cls-99" d="M48.67,43.28c.24,1,1.62,1.54,3.09,1.2S54.24,43.05,54,42s-1.62-1.54-3.09-1.2S48.44,42.28,48.67,43.28Z"/><path class="cls-100" d="M48.71,43.27c.22,1,1.59,1.52,3,1.19S54.19,43,54,42.05s-1.59-1.52-3-1.18S48.48,42.28,48.71,43.27Z"/><path class="cls-101" d="M48.74,43.27c.22,1,1.57,1.5,3,1.16s2.41-1.39,2.18-2.37-1.57-1.5-3-1.16S48.51,42.29,48.74,43.27Z"/><path class="cls-102" d="M48.77,43.26c.22,1,1.55,1.48,3,1.15S54.1,43,53.88,42.07s-1.55-1.47-3-1.15S48.54,42.3,48.77,43.26Z"/><path class="cls-103" d="M48.8,43.25c.22,1,1.53,1.46,2.92,1.14s2.34-1.36,2.11-2.31S52.31,40.63,50.92,41,48.58,42.3,48.8,43.25Z"/><path class="cls-104" d="M48.83,43.24c.22.94,1.5,1.44,2.87,1.12S54,43,53.79,42.09s-1.5-1.43-2.87-1.11S48.61,42.31,48.83,43.24Z"/><path class="cls-105" d="M48.86,43.24c.21.92,1.48,1.41,2.83,1.1S54,43,53.75,42.1s-1.48-1.41-2.83-1.1S48.65,42.32,48.86,43.24Z"/><path class="cls-106" d="M48.89,43.23c.21.91,1.46,1.39,2.79,1.08s2.24-1.29,2-2.2S52.25,40.72,50.92,41,48.68,42.32,48.89,43.23Z"/><path class="cls-107" d="M48.92,43.22c.21.89,1.44,1.37,2.75,1.07s2.2-1.28,2-2.17-1.43-1.37-2.74-1.06S48.72,42.33,48.92,43.22Z"/><path class="cls-108" d="M49,43.22c.21.87,1.42,1.34,2.71,1.05s2.17-1.26,2-2.14-1.41-1.35-2.7-1.05S48.75,42.34,49,43.22Z"/><path class="cls-109" d="M49,43.21c.2.86,1.4,1.33,2.67,1s2.13-1.23,1.93-2.1-1.39-1.33-2.66-1S48.78,42.34,49,43.21Z"/><path class="cls-110" d="M49,43.2c.19.85,1.37,1.31,2.61,1s2.1-1.22,1.9-2.07-1.36-1.3-2.61-1S48.82,42.35,49,43.2Z"/><path class="cls-111" d="M49.05,43.19c.19.84,1.34,1.29,2.57,1s2.07-1.19,1.87-2-1.35-1.28-2.57-1S48.85,42.36,49.05,43.19Z"/><path class="cls-112" d="M49.08,43.19c.19.82,1.32,1.26,2.53,1s2-1.18,1.84-2-1.33-1.26-2.53-1S48.89,42.36,49.08,43.19Z"/><path class="cls-113" d="M49.11,43.18c.18.81,1.3,1.24,2.49,1s2-1.16,1.81-2-1.31-1.24-2.49-1S48.92,42.37,49.11,43.18Z"/><path class="cls-3" d="M49.14,43.17c.18.8,1.28,1.22,2.45.95s2-1.14,1.77-1.93-1.28-1.22-2.44-.95S49,42.38,49.14,43.17Z"/></g></g></svg>