<svg xmlns="http://www.w3.org/2000/svg" xmlns:xlink="http://www.w3.org/1999/xlink" viewBox="0 0 132.77 85.02"><defs><style>.cls-1{fill:url(#linear-gradient);}.cls-2{fill:#735118;opacity:0.5;}.cls-3{fill:url(#linear-gradient-2);}.cls-4{fill:url(#linear-gradient-3);}.cls-5{fill:#fff;opacity:0.3;}.cls-6{fill:url(#linear-gradient-4);}.cls-7{fill:url(#linear-gradient-5);}.cls-8{fill:url(#linear-gradient-6);}</style><linearGradient id="linear-gradient" x1="54.86" x2="54.86" y2="76.62" gradientUnits="userSpaceOnUse"><stop offset="0" stop-color="#e5491e"/><stop offset="1" stop-color="#af3e22"/></linearGradient><linearGradient id="linear-gradient-2" x1="37.97" x2="37.97" y2="66.54" gradientUnits="userSpaceOnUse"><stop offset="0" stop-color="#009f40"/><stop offset="1" stop-color="#003919"/></linearGradient><linearGradient id="linear-gradient-3" x1="16.94" y1="26.26" x2="16.94" y2="40.95" xlink:href="#linear-gradient-2"/><linearGradient id="linear-gradient-4" x1="302.4" y1="31.39" x2="302.4" y2="85.02" gradientTransform="matrix(-1, 0, 0, 1, 396.77, 0)" xlink:href="#linear-gradient"/><linearGradient id="linear-gradient-5" x1="290.58" y1="31.39" x2="290.58" y2="77.97" gradientTransform="matrix(-1, 0, 0, 1, 396.77, 0)" xlink:href="#linear-gradient-2"/><linearGradient id="linear-gradient-6" x1="275.86" y1="49.77" x2="275.86" y2="60.05" gradientTransform="matrix(-1, 0, 0, 1, 396.77, 0)" xlink:href="#linear-gradient-2"/></defs><title>Asset 4</title><g id="Layer_2" data-name="Layer 2"><g id="图层_1" data-name="图层 1"><path class="cls-1" d="M94.24,38.31c0,21.16-17.63,38.31-39.38,38.31S15.47,59.47,15.47,38.31,33.1,0,54.86,0,94.24,17.15,94.24,38.31Z"/><path class="cls-2" d="M42,31.17c0,6.36-4.08,11.52-9.12,11.52s-9.11-5.16-9.11-11.52,4.08-11.51,9.11-11.51S42,24.82,42,31.17Z"/><path class="cls-3" d="M25.18,26.26S18,9,25.18,0c0,0-.36,14,6.47,22.66A37.72,37.72,0,0,1,49.28,1.8S33.81,17.63,36.69,28.06c0,0,11.87,4.67,17.27,1.8,0,0,.36,5-16.91,6.11,0,0-15.47,10.79-1.08,30.57,0,0-15.83-10.43-7.91-33.09Z"/><path class="cls-4" d="M31.65,26.26S11.51,28.06,0,39.57c0,0,3.6,2.16,5.4,1.08S21.22,32.37,30.93,36C30.93,36,37.05,31.65,31.65,26.26Z"/><path class="cls-5" d="M65,10.07c-2.4,1.6,26.85,13.43,7.67,40.29,0,0,5.27,9.17,14.39-3.84S79.37.48,65,10.07Z"/><path class="cls-6" d="M66.79,58.21C66.79,73,79.14,85,94.37,85s27.57-12,27.57-26.81S109.59,31.39,94.37,31.39,66.79,43.4,66.79,58.21Z"/><path class="cls-2" d="M103.39,53.21c0,4.45,2.86,8.06,6.38,8.06s6.38-3.61,6.38-8.06-2.86-8.05-6.38-8.05S103.39,48.76,103.39,53.21Z"/><path class="cls-7" d="M115.14,49.77s5-12.08,0-18.38c0,0,.25,9.82-4.53,15.86a26.42,26.42,0,0,0-12.34-14.6S109.1,43.73,107.08,51c0,0-8.31,3.27-12.08,1.26,0,0-.26,3.53,11.83,4.28,0,0,10.83,7.55.76,21.4,0,0,11.08-7.3,5.53-23.16Z"/><path class="cls-8" d="M110.61,49.77s14.1,1.26,22.16,9.32c0,0-2.52,1.51-3.78.75s-11.08-5.79-17.88-3.27C111.11,56.57,106.83,53.55,110.61,49.77Z"/><path class="cls-5" d="M106.71,68.38S93.63,81,76.19,66.64c0,0-1.74,7.84,7.85,13.08S108.89,80.15,106.71,68.38Z"/></g></g></svg>