<?xml version="1.0" encoding="utf-8"?>
<!-- Svg Vector Icons : http://www.onlinewebfonts.com/icon -->
<!DOCTYPE svg PUBLIC "-//W3C//DTD SVG 1.1//EN" "http://www.w3.org/Graphics/SVG/1.1/DTD/svg11.dtd">
<svg version="1.1" xmlns="http://www.w3.org/2000/svg" xmlns:xlink="http://www.w3.org/1999/xlink" x="0px" y="0px" viewBox="0 0 1000 1000" enable-background="new 0 0 1000 1000" xml:space="preserve">
<metadata> Svg Vector Icons : http://www.onlinewebfonts.com/icon </metadata>
<g><g transform="translate(0.000000,488.000000) scale(0.100000,-0.100000)"><path d="M5723,4717.4c-102.3-64.2-116.4-148.5-58.2-339.1c96.3-303,72.2-509.7-110.4-1023.5c-180.6-509.7-196.7-584-198.7-885c0-146.5-4-266.9-8-266.9c-4,0-80.3,58.2-170.6,128.4c-495.7,385.3-941.2,604-1402.7,686.3c-858.9,152.5-1778-411.4-2472.4-1517.1C796.4,693.7,381-448.1,200.3-1523.8C116-2017.4,102-2202.1,100-2673.7c0-650.2,64.2-999.4,248.8-1378.7c244.8-499.7,682.3-768.6,1485-911.1c102.3-20.1,331.1-28.1,712.4-28.1c485.6,0,602,6,862.9,46.2c1300.4,200.7,2480.4,676.3,3387.5,1362.6c277,210.7,714.5,654.2,872.9,885c557.9,814.8,529.8,1613.5-88.3,2538.6C7444.9,43.5,7438.8,57.6,7489,45.6c254.9-64.2,357.2-78.3,606.1-78.3c355.2,2,582,60.2,897,228.8c285,152.5,569.9,403.4,784.6,690.3c144.5,190.6,156.5,268.9,64.2,369.2c-58.2,62.2-130.4,74.3-260.9,46.2c-507.7-112.4-586-124.4-883-136.5c-345.2-12-495.7,12-656.3,106.4l-86.3,50.2l142.5,184.6c278.9,365.2,421.4,766.6,451.5,1270.3c34.1,557.9-168.6,1196.1-479.6,1515.1c-84.3,86.3-174.6,110.4-256.9,68.2c-86.3-46.2-112.4-102.3-126.4-287c-36.1-453.5-208.7-977.3-435.4-1310.4c-72.3-106.4-285-319.1-319.1-319.1c-8,0-14.1,182.6-14.1,407.4c2,323.1-6,437.5-34.1,565.9c-52.2,230.8-140.5,447.5-256.9,626.1c-186.6,287-660.2,708.4-796.7,708.4C5801.3,4751.5,5753.1,4735.4,5723,4717.4z M6319.1,3758.1c174.6-293,218.8-622.1,170.6-1264.3c-22.1-313.1-22.1-349.2,8-409.4c46.1-86.3,112.4-108.4,297-98.3c202.7,12,371.3,92.3,559.9,272.9c274.9,258.9,475.6,628.1,628.1,1155.9l46.1,158.5l48.2-168.6c42.1-148.5,48.2-210.7,48.2-519.8c0-305-6-371.3-46.2-507.7c-90.3-317.1-220.7-539.8-465.5-804.7C7489,1438.3,7473,1412.2,7473,1344c0-126.4,148.5-301,367.2-431.5c188.7-114.4,399.4-162.6,716.4-162.6c148.5-2,335.1,6,411.4,14l140.5,16.1l-80.3-72.2c-114.4-102.3-451.5-260.9-640.2-303c-240.8-52.2-563.9-30.1-814.7,52.2c-405.4,132.5-726.5,345.2-1135.8,752.5c-305.1,303-409.4,431.5-529.8,658.2c-112.4,210.7-148.5,351.2-148.5,586c-2,224.8,8,264.9,188.7,772.6c116.4,333.1,180.6,584,180.6,720.4l2,72.3l58.2-70.2C6220.7,3910.6,6278.9,3824.4,6319.1,3758.1z M3931,2564.1c569.9-176.6,1131.8-598,2131.2-1601.4c957.3-959.3,1374.6-1525.2,1531.2-2071c66.2-228.8,76.2-549.9,24.1-754.6c-78.3-309.1-248.8-594-545.8-913.1c-891-961.3-2486.4-1659.6-4113.9-1804.1c-762.6-66.2-1497.1,50.2-1880.4,299C678-4020.2,509.4-3548.6,509.4-2685.7c0,1242.2,421.4,2749.3,1081.7,3865.1c441.5,748.5,1003.4,1256.3,1555.3,1406.8C3339,2638.3,3722.3,2626.3,3931,2564.1z"/><path d="M3790.5,2176.8c-188.6-62.2-331.1-164.6-401.4-285c-76.3-128.4-66.2-210.7,32.1-260.9c184.6-96.3,592,76.3,698.4,297c54.2,110.4,52.2,140.5-4,206.7C4059.4,2198.8,3916.9,2216.9,3790.5,2176.8z"/><path d="M5207.3,1327.9c-268.9-134.4-457.6-455.5-347.2-590c34.1-40.1,58.2-50.2,138.5-50.2c240.8,0,529.8,262.9,561.9,513.7c10,62.2,2,84.3-40.1,126.4C5452.1,1396.1,5345.8,1396.1,5207.3,1327.9z"/><path d="M2381.7,816.2c-96.3-28.1-291-218.7-351.2-343.2c-74.2-152.5-82.3-291-16-357.2c52.2-52.2,158.5-52.2,256.9-2c94.3,48.2,246.8,210.7,307,325.1c56.2,106.4,66.2,301,18.1,347.2C2556.3,828.2,2460,840.2,2381.7,816.2z"/><path d="M3764.4,471c-194.7-102.3-371.3-339.2-371.3-499.7c0-202.7,206.7-222.7,447.5-46.2c208.7,152.5,327.1,445.5,222.8,549.9C4007.2,531.2,3878.8,529.2,3764.4,471z"/><path d="M5275.5-369.9c-305-108.4-545.9-525.8-379.3-656.2c30.1-24.1,74.2-42.1,98.3-42.1c232.8,0,551.9,313,551.9,541.8c0,102.3-12.1,124.4-74.3,158.5C5420-341.7,5355.8-341.7,5275.5-369.9z"/><path d="M2014.5-697c-112.4-58.2-270.9-222.7-321.1-337.1c-156.5-341.2,182.6-435.5,485.6-132.5c168.6,168.6,234.8,381.3,148.5,477.6C2275.4-630.7,2132.9-632.7,2014.5-697z"/><path d="M6680.3-1200.7c-102.3-52.2-188.7-152.5-262.9-297c-54.2-110.4-68.2-160.5-68.2-256.9c0-138.5,22.1-190.6,96.3-218.7c188.7-72.3,489.7,278.9,493.7,577.9c2,104.4-6,130.4-46.2,174.6C6836.8-1160.5,6768.6-1154.5,6680.3-1200.7z"/><path d="M3485.5-1551.8c-134.4-66.2-258.9-188.7-325.1-323.1c-90.3-178.6-82.3-274.9,22.1-329.1c204.7-106.4,638.2,266.9,638.2,547.9c0,26.1-22.1,70.2-50.2,96.3C3708.2-1495.7,3601.9-1493.7,3485.5-1551.8z"/><path d="M1416.5-2392.7c-305-220.7-393.3-742.5-126.4-742.5c212.7,0,471.6,385.3,437.5,646.2C1705.4-2322.5,1571-2280.3,1416.5-2392.7z"/><path d="M4918.3-2460.9c-238.8-86.3-443.5-319.1-407.4-463.6c30.1-122.4,230.8-150.5,427.5-60.2c154.5,70.2,240.8,138.5,309,246.8c114.4,180.6,54.2,305-144.5,305C5042.7-2434.8,4960.5-2446.9,4918.3-2460.9z"/><path d="M2937.6-3313.8c-230.8-70.2-461.6-295-461.6-449.5c0-62.2,64.2-128.5,140.5-144.5c190.6-42.1,521.8,136.5,624.1,333.1c52.2,102.4,48.2,170.6-12,228.8c-38.1,40.1-68.2,50.2-144.5,48.2C3031.9-3297.8,2965.7-3305.8,2937.6-3313.8z"/></g></g>
</svg>